# xmcd
#
# Track frame offsets: 
#        150
#        17181
#        28989
#        41269
#        54057
#        64910
#        78189
#        91376
#        101568
#        113979
#        126099
#        138753
#
# Disc length: 1952 seconds
#
# Revision: 1
# Processed by: cddbd v1.5.2PL0 Copyright (c) Steve Scherf et al.
# Submitted via: ExactAudioCopy v1.0b4
#
DISCID=94079e0c
DTITLE=Jack Clement - For Once And For All
DYEAR=2014
DGENRE=Country
TTITLE0=I've Got A Thing About Trains
TTITLE1=Got Leaving On Her Mind
TTITLE2=Baby Is Gone
TTITLE3=Just Between You And Me
TTITLE4=Miller's Cave
TTITLE5=Let The Chips Fall
TTITLE6=Just A Girl I Used To Know
TTITLE7=Fools Like Me
TTITLE8=I Know One
TTITLE9=The Spell Of The Freight Train
TTITLE10=Jesus Don't Give Up On Me
TTITLE11=The Air Conditioner Song
EXTD=YEAR: 2014
EXTT0=
EXTT1=
EXTT2=
EXTT3=
EXTT4=
EXTT5=
EXTT6=
EXTT7=
EXTT8=
EXTT9=
EXTT10=
EXTT11=
PLAYORDER=
